# xmcd
#
# Track frame offsets:
#	150
#	31574
#	52117
#	64101
#	96543
#	117514
#	127729
#	149051
#	174026
#	203480
#	225693
#	256354
#
# Disc length: 3652 seconds
#
# Revision: 0
# Processed by: cddbd v1.5.2PL0 Copyright (c) Steve Scherf et al.
# Submitted via: dBpowerAMP V4.0
#
DISCID=a40e420c
DTITLE=Hot Tuna - The Filmore San Fransisco CA Dis 02
DYEAR=1988
DGENRE=Blues
TTITLE0=01 I See The Light
TTITLE1=02 Martha
TTITLE2=03 Embryonic Journey
TTITLE3=04 Carlos Vonseca
TTITLE4=05 San Fransisco Bay Blues
TTITLE5=06 Genesis
TTITLE6=07 Parchman Farm
TTITLE7=08 Good Shepherd
TTITLE8=09 Let Us Get Together Right Down Here
TTITLE9=10 John's Other
TTITLE10=11 Vampire Women
TTITLE11=12 Have You Seen The Stars Tonight
EXTD=
EXTT0=
EXTT1=
EXTT2=
EXTT3=
EXTT4=
EXTT5=
EXTT6=
EXTT7=
EXTT8=
EXTT9=
EXTT10=
EXTT11=
PLAYORDER=
